<svg xmlns="http://www.w3.org/2000/svg"><symbol id="brachiosaurus" viewBox="0 0 256 256"><path fill="#0056cb" d="M87.1 152.2a23.4 23.4 0 0 0-4.7.5l.5.6 1.2.6 1.6.6 1.7.5 1.4.3.9.2H91l1.5-.2 1.5-.6a3.9 3.9 0 0 0 1-.8 18.2 18.2 0 0 0-3.9-1.4 17.5 17.5 0 0 0-4-.3z"/><path d="M128.7 2.7a126 126 0 1 0 126 126 126 126 0 0 0-126-126zm82.1 69.5v.3a3.7 3.7 0 0 1-.1 1.4q-.1.9-.3 2.1l-.3 2a7.8 7.8 0 0 1-.3 1.4 15 15 0 0 0-.9 1.8l-.6 1.9-.6 2a10.7 10.7 0 0 1-.7 1.9 30.7 30.7 0 0 1-1.7 3.1 21 21 0 0 0-1.5 3L184 120.6l-.2.5-.3.3-.3.3a1.1 1.1 0 0 0-.4.5l-1.7 2.2-2 2.9-2.2 3.2c-.7 1.1-1.4 2.2-1.9 3.2a18.8 18.8 0 0 0-1.4 2.9 6 6 0 0 0-.5 2.3c0 .3-.3.6-.3.8a1.4 1.4 0 0 1 .2.7c-.1 0-.2.1-.2.4a.5.5 0 0 0 .2.4v10a3.6 3.6 0 0 1-.2 1c-.2.4-.2.8-.4 1.2s-.5.8-.6 1.2-.4.8-.4 1.1v1.6a.8.8 0 0 1 0 .5c-.2.2-.2.5-.4.7l-.7.8c-.2.3-.5.4-.5.5v.3c0 .1.6.3.7.5s.9.3.9.4v2.8a23.3 23.3 0 0 1-.6 3.5c-.2 1.1-.6 2.3-.8 3.4s-.5 2.3-.6 3.5a20.9 20.9 0 0 0-.4 3.5c0 2.1.1 4.2.3 6.2a38.8 38.8 0 0 0 1.1 6.1 27.8 27.8 0 0 0 2.1 5.7 22.2 22.2 0 0 0 3.4 5.2 3.6 3.6 0 0 1-1.2.8l-1.7.7-1.7.5h-1.9l-1-.3-1.2-.2-1-.3h-.7l-.8-.3-.6-.5a2.4 2.4 0 0 1-.3-.7 26.4 26.4 0 0 0 .1-4 29.7 29.7 0 0 0-.3-4.2c-.1-1.4-.3-2.8-.5-4.3s-.3-2.7-.5-4-.1-.3-.2-.6l-.2-.6c0-1.1.1-2.3.1-3.6s0-2.7-.1-4a25.7 25.7 0 0 0-.6-4 12.8 12.8 0 0 0-1.4-3.4 3.8 3.8 0 0 0-1.5 1.8 26.8 26.8 0 0 0-.7 2.7c-.3 1-.2 1.9-.5 2.9s-.9 1.7-.9 2.3v7.4c0 2.8-.2 5.6-.1 8.2a73.6 73.6 0 0 0 .6 8.1l.4.4.8.6.8.7a.9.9 0 0 1 .3.6c0 .2-.3.5-.8.8a7.5 7.5 0 0 1-1.8.8 10.4 10.4 0 0 1-2 .8l-1.3.5h-.2l-4.7-2.6a.4.4 0 0 1-.2-.5v-.6a27.9 27.9 0 0 1 0-2.9 29.1 29.1 0 0 0 .1-3 23.4 23.4 0 0 0-.3-3.8c-.1-1.2-.4-2.5-.6-3.7s-.4-2.4-.5-3.7a23.8 23.8 0 0 1-.3-3.9 31.1 31.1 0 0 1 .1-3.2 23.6 23.6 0 0 1 .4-2.8c.1-.9.3-1.8.5-2.8s.4-2 .6-3.2a.8.8 0 0 0 0-.7 2 2 0 0 1-.1-.7l-1.9.2-1.8.5-1.9.6-1.9.6-1.4.2h-2l-1.1-.2h-7a44.3 44.3 0 0 0-5.2-.2h-2.4a3.5 3.5 0 0 0-2.3.9v5.1c-.1 1.7-.1 3.4-.2 5.1s-.2 3.3-.2 5-.2 3.4-.2 5.2v5c0 .6.7 1.1 1.1 1.7a11.5 11.5 0 0 1 1.4 1.7 6.6 6.6 0 0 1 1.2 1.7 4.1 4.1 0 0 1 .5 1.8v.4a10.7 10.7 0 0 1-4 .4c.1.4 0 .7-.3.7H116a8.2 8.2 0 0 1-2.2-.2 3.7 3.7 0 0 1-1.8-.8 2.3 2.3 0 0 1-.8-1.9 5 5 0 0 1 .2-1.2l.3-1.3.3-1.3a6.6 6.6 0 0 0 .1-1.4 23.6 23.6 0 0 0-.2-3.8c-.2-1.2-.4-2.4-.7-3.6s-.5-2.6-.8-3.8a25.3 25.3 0 0 1-.7-3.9h-.4c-.3 0-.4.8-.6.9l-.3.7-.4.5-1.5 2.3-1.4 2.2a12.8 12.8 0 0 0-1.1 2.4 8.4 8.4 0 0 0-.4 2.7 4.5 4.5 0 0 0 .3 1.6 5.2 5.2 0 0 0 .7 1.5l.7 1.2.4.5a1 1 0 0 1-.5.8 2.3 2.3 0 0 1-1 .4l-1.3.3h-4.3a2.3 2.3 0 0 1-1-.4 2.2 2.2 0 0 1-.7-.9 9.1 9.1 0 0 1-.6-1.6 9.8 9.8 0 0 0-.5-1.6 8.8 8.8 0 0 1-.2-1.6 2.8 2.8 0 0 1 .4-1.5 12.9 12.9 0 0 1 .9-1.6L98 189a10 10 0 0 0 .8-1.4l2.4-5.8 2.4-5.9.5-.7.5-.7.5-.8a1.9 1.9 0 0 0 .1-.8q0-.6-.3-.6h-1.3l-8.9 2.4a2.7 2.7 0 0 1-1.3.5l-1.7.4a7.6 7.6 0 0 0-1.6.6 1.2 1.2 0 0 0-.7 1 1.2 1.2 0 0 0 .3.9c.1.3.4.5.6.7l.8.5.8.6-.4.5-1.3-.9-1.4-.8-1.5-.6a3.9 3.9 0 0 0-1.5-.2 12.2 12.2 0 0 0-3.7.5l-4 1.1-4 1.1a15.1 15.1 0 0 1-4.2.5 17.7 17.7 0 0 1-3.4-.4 37 37 0 0 1-4.9-1.1c-1.7-.5-3.5-1-5.3-1.7a39.3 39.3 0 0 1-5-2.2 15.3 15.3 0 0 1-3.6-2.7 4.1 4.1 0 0 1-1.5-2.9 4.3 4.3 0 0 1 1.2-3.3 6.1 6.1 0 0 1 2.7-1.6 18.3 18.3 0 0 1 3.4-.2c1.2 0 2.4.4 3.3.4h4a2.4 2.4 0 0 1 1.3-.3c.6.1 1.4 0 2.3.2l2.5.3 2 .2a7 7 0 0 1 1.9.6l1.8.8 1.8.8a6.4 6.4 0 0 0 2 .3 7.7 7.7 0 0 0 3.9-1.1 30 30 0 0 0 4.1-2.5l3.9-3.1 3.2-2.7 1.8-1.2a11.8 11.8 0 0 0 1.9-1.1l1.7-1.2 1.5-1.7a48.3 48.3 0 0 0 2.6-4.5 28.2 28.2 0 0 1 2.6-4.4l1.3-1.3 1.6-1 1.6-.8 1.6-.9 3.6-2.7 3.4-2.9 3.3-2.9c1.1-1 2.2-2 3.4-2.9a34.4 34.4 0 0 1 3.8-2.2l3.9-1.8 2.4-1.3 2.5-1.3 2.5-1.1a13.4 13.4 0 0 1 2.7-.7l22.2-3.3a9 9 0 0 0 3.4-1.1 17.9 17.9 0 0 0 3.4-2.2 27 27 0 0 0 3.1-2.8l2.9-3.2 2.7-3.2 2.3-2.8 7.6-8.9q.1 0 .3-.3l.6-.5.5-.5.3-.3 2-3.2c0-.1.1-.1.2-.2l.4-.2.4-.3c.1-.1.2-.1.2-.2s.2-.1.4-.4l.4-.4 1.2-1.6 1.4-2c.4-.7.9-1.3 1.3-1.9a15 15 0 0 0 .9-1.8 12.1 12.1 0 0 0 .9-2c.2-.6.4-1.4.7-2.1s.5-1.4.7-2.1 1-1.5 1-2.2v-6.1a5 5 0 0 0-1.1-3 9.2 9.2 0 0 0-2.6-2.6 10.6 10.6 0 0 0-3.3-1.8 8.1 8.1 0 0 0-3.2-.7 22.5 22.5 0 0 0-5.8.7 11.5 11.5 0 0 0-5 2.6 9.6 9.6 0 0 0-1.5 1.4l-1.6 1.9-1.7 2-1.8 1.8a10.2 10.2 0 0 1-1.8 1.3 4.1 4.1 0 0 1-1.8.5 1.6 1.6 0 0 1-1.1-.5 1.3 1.3 0 0 1-.5-1.1v-.4a1.1 1.1 0 0 1 .1-.5c0-.2.1-.5.1-.8s.1-.5.2-.7v-.5a4.7 4.7 0 0 0-.2-1.7l-.6-1.3-.6-1.2a2.5 2.5 0 0 1-.2-1.2 1 1 0 0 0 .8-.3c.2-.1.3-.4.5-.6a1.6 1.6 0 0 1 .4-.7 1 1 0 0 1 .8-.6c0-.1.2-.1.5-.1h2.3a1 1 0 0 0 .9-.4l.7-.6c.1-.1.2 0 .3 0h.1a.5.5 0 0 1 .2.4l.2.4a.8.8 0 0 1 .4-.4l.6-.3 1.1-.7 1.4-.8a5.7 5.7 0 0 0 1.3-.8l1.1-.6.6-.4a12 12 0 0 1 2.1-1.2l1.7-.7 1.9-.2h6.4l1.5.5 1.5.3 1.5.3 1.6.5a17.7 17.7 0 0 1 4.5 3 16.7 16.7 0 0 1 3.2 4.2 19.6 19.6 0 0 1 1.7 5 24.6 24.6 0 0 1 .4 5.4v.7a2.2 2.2 0 0 1 0 .8z"/></symbol><symbol id="micropachycephalosaurus" viewBox="0 0 256 256"><path d="M131.4 141.6c-.2 0-.2.1-.2.4h-.1a.3.3 0 1 0 .3.3.3.3 0 0 0 .3-.3c0-.3-.1-.4-.3-.4zm.9-.5l-.5.5h.1l.7-.2.5-.4h-.8zm1.8-1.5c-.1 0-.2.1-.2.3h-.1c-.2 0-.3.1-.3.4a.3.3 0 0 0-.3.3c0 .2.1.4.3.4s.2-.2.2-.4h.1a.3.3 0 0 0 .3-.3c.2 0 .3-.2.3-.4a.3.3 0 0 0-.3-.3zm14-3.6a7.1 7.1 0 0 1-.7.9 1 1 0 0 0 .5.6h.6a1.4 1.4 0 0 0 .9-.3l.6-.7a4.1 4.1 0 0 0 .5-.9c.1-.3.2-.7.3-.7h-2.1c-.1.1-.3.8-.6 1.1z"/><path d="M128.7 1.7a126 126 0 1 0 126 126 126 126 0 0 0-126-126zm95.9 73.9l-1.5.4h-3.7a37.4 37.4 0 0 0-5.3 1.3 21.6 21.6 0 0 0-3.7 1.6 8.8 8.8 0 0 0-2.5 2.2 15.8 15.8 0 0 0-1.7 2.9 20.8 20.8 0 0 0-1.5 4c-.5 1.5-1.1 3.1-1.7 5.1l-1.2 3.4a30.5 30.5 0 0 1-1.3 3.2c-.4 1.1-.9 2.1-1.4 3.2l-1.8 3.2a24.2 24.2 0 0 1-2.7 4.1 34.7 34.7 0 0 1-3 3.7l-3.1 3.6a40.8 40.8 0 0 0-3.1 3.9 11.6 11.6 0 0 0-1.4 2.7 18.6 18.6 0 0 1-1 2.5 10.5 10.5 0 0 1-1.3 2.3 6.7 6.7 0 0 1-2.5 1.6l-1.4.5-2 .7-2.1.6-1.3.4a3.1 3.1 0 0 1 .1 2.1 2.4 2.4 0 0 1-.8.9l-1.3.6a1.8 1.8 0 0 0-.9 1l-2.2 6.8a3.3 3.3 0 0 1-1.1 1.5 4.9 4.9 0 0 1-1.8.8 12.3 12.3 0 0 1-2 .2 11.5 11.5 0 0 1-1.9-.1h-.8c-.5 0-.9.2-1.2 0a.8.8 0 0 1-.4-.8c0-.2.1-.3.1-.4l.3-.3.2-.3c.1-.1.1-.2.1-.4a27.2 27.2 0 0 0-3.5 1.6l-3.4 2.1-3.3 2.2-3.4 2-.9.4-1.1.6-1.1.8a1.8 1.8 0 0 0-.4 1v.6a14.5 14.5 0 0 0 1.8 1.6l1.9 1.8 2.1 1.6 2.1 1.2a6.7 6.7 0 0 0 1.8.7l2 .6 1.9.6 1.7.9a9.3 9.3 0 0 1 1.3 1.5l1.1 1.5 1.2 1.4a4.7 4.7 0 0 0 1.5 1.3 3.4 3.4 0 0 0 1.6.6l2.1.7a5.2 5.2 0 0 1 1.8 1 2.1 2.1 0 0 1 .8 1.7.4.4 0 0 1-.1.3v.2l-5.7 1.2-1.1.4-1.2.2h-.5l-1.2-.6-1.7-1.1-1.7-1-1.1-.7-.2-.2-.3-.5-.3-.6-.3-.4-2.3-4.6-1.1-.4-1.8-.8-2.2-.9-2.1-1-1.8-.8-1.2-.6-2.8-1.6a17.8 17.8 0 0 1-2.6-2.2 10.5 10.5 0 0 1-2-2.7 8.9 8.9 0 0 1-1.1-3.1l-.5.2-.6.3-.9.7-1.7 1.2-2.2 1.4-2.1 1.4-1.8 1-.9.6-6 3.5a24.2 24.2 0 0 0-4.6 3.5 17.7 17.7 0 0 0-3.7 4.4c-.9 1.8-.7 4-2.4 6.7v1.6a10.5 10.5 0 0 0 1.2 4.5 9.2 9.2 0 0 0 2.1 2.6 8.7 8.7 0 0 0 2.7 1.4l2.6 1a5.6 5.6 0 0 1 1.9.9 5.2 5.2 0 0 1 .9 2.1h-13.4s0-.3-.1-.4-.3-.1-.4-.2l-.5-.2c-.2-.1-.4-.1-.6-.3a3.4 3.4 0 0 1-1.3-1.6 10.8 10.8 0 0 1-.5-2.1c0-.8.2-1.6.2-2.4a19.6 19.6 0 0 0 .3-2V181a8.2 8.2 0 0 1 .3-1.8c.2-.8.3-1.7.6-2.7s.5-2.1.8-3.2.5-2.2.8-3.2.4-1.9.6-2.6l.5-1.8c.2-.8.4-1.4.6-2l1-2a13.4 13.4 0 0 0 4.6-2.5 32.7 32.7 0 0 0 3.2-3.3l3-3.5a14.5 14.5 0 0 1 3.4-3.1 5.3 5.3 0 0 1 1.5-.7l2-.8 2.4-1a10.3 10.3 0 0 0 2.1-1.1 5.6 5.6 0 0 0 1.6-1.4 2 2 0 0 0 .6-1.5v-1.4a1.7 1.7 0 0 0-.6-1.2l-.8-.3-1.2-.5-1.2-.6-.7-.3a9.7 9.7 0 0 1-2.1-1.2c-.9-.6-1.7-1.3-2.7-1.9a25.6 25.6 0 0 0-2.5-1.6 3.4 3.4 0 0 0-1.8-.6h-7.9c-6 0-12-.1-17.8.1s-11.8.2-17.8.2c-4.4 0-8.8-.1-13-.3s-8.3-.7-12.4-1.4a82.3 82.3 0 0 1-12.1-3 64.1 64.1 0 0 1-11.9-5l-1.4-.8-1.6-1a5.8 5.8 0 0 1-1.4-1.3 3 3 0 0 1-.5-1.6 9.5 9.5 0 0 1 2.1.4l2.5 1 2.2.9 1.5.7 4.7 1.6a38 38 0 0 0 5.1 1.5 45.9 45.9 0 0 0 5.1 1 28.5 28.5 0 0 0 4.9.4h25.5l1.2-.2 2.6-.3 3.4-.5 3.7-.7 3.4-.6 2.7-.6 6.9-1.3 7.5-1.6c2.5-.6 4.9-1.3 7.3-2.1a43.9 43.9 0 0 0 6.6-2.9l3.9-1.8 3.8-1.6 4-1.3a25.9 25.9 0 0 1 4.2-.9h1l1.8-.2h1.8l1.1-.2 1.9-.3 3.4-.8 4-.9 4.1-.9c1.3-.3 2.4-.9 3.4-1.1s1.5-.8 1.9-.8h6.6a69.9 69.9 0 0 1 8 .8c2.5.2 5.2.5 7.8.5a10.2 10.2 0 0 0 5.1-1.3 18.7 18.7 0 0 0 4.6-3.5 33.3 33.3 0 0 0 3.9-5q1.8-2.8 3.3-5.7c.9-1.9 1.8-3.8 2.5-5.6a44.4 44.4 0 0 0 1.8-4.9c.5-1.2.8-2.3 1.2-3.5a28.1 28.1 0 0 1 1-3.1 10.3 10.3 0 0 1 1.2-2.6 5.8 5.8 0 0 1 1.8-2 6.9 6.9 0 0 1 2.6-1.7 12.7 12.7 0 0 1 3.8-.8h3.1c.8 1.7 1.8 1 3 1.4l3.6 1.5a21.6 21.6 0 0 1 3 1.8 3.1 3.1 0 0 1 1.2 2.2 2.4 2.4 0 0 1-.4 1.5 3.6 3.6 0 0 1-1.2.6z"/></symbol><symbol id="velociraptor" viewBox="0 0 256 256"><path d="M128.7 1.7a126 126 0 1 0 126 126 126 126 0 0 0-126-126zM195 121h-4.5l-5.5-.2-5.5-.6-5.5-.6a49.3 49.3 0 0 0-5.5-.3 81.8 81.8 0 0 0-9.8.6 51.5 51.5 0 0 0-9.6 2.2l-18.4 6.7c-.3.1-.5.4-.7.9a8.4 8.4 0 0 0-.5 1.7 8.5 8.5 0 0 1-.4 1.7 5 5 0 0 1-.3 1.2 1.5 1.5 0 0 0 .8.8l1.5.7 1.7.7a5.6 5.6 0 0 1 1.7.9 4.3 4.3 0 0 1 1.2 1.1 2 2 0 0 1 .5 1.5.9.9 0 0 1-.3.7 1.8 1.8 0 0 1-.7.5 3.1 3.1 0 0 1-1 .5l-.9.5a2.4 2.4 0 0 0-.8.6 1.2 1.2 0 0 0-.3.9 2.3 2.3 0 0 0 .5 1.5 4 4 0 0 0 1.2 1l1.4.8a4.1 4.1 0 0 1 1.3 1 11.3 11.3 0 0 1 1.2 2.1 19.5 19.5 0 0 1 .8 2.2c.2.8.3 1.5.5 2.3s0 1.6.1 2.4l.8.8v4.2h1.1l.6.2h.4v.5a1.5 1.5 0 0 1-.1.6 1.4 1.4 0 0 1-.2.7l-.3.6a.7.7 0 0 1-.6.2h-3.1l-.6-.5-.9-.5-.9-.5-.7-.5h-3.8a3.4 3.4 0 0 1 .4-1.8 2.8 2.8 0 0 1 1-.9l1.3-.4 1.3-.2 1-.4a.9.9 0 0 0 .4-.8v-.4l-.5-1.1-.8-1.4a6 6 0 0 0-.9-1.5 3.5 3.5 0 0 0-.9-1.1l-.8-.5-1.1-.5-1.1-.7a1.3 1.3 0 0 1-.6-.7c-.2-.5-.3-1-.5-1.7a11.8 11.8 0 0 0-.7-2 4 4 0 0 0-1-1.5 2.4 2.4 0 0 0-1.7-.6 15 15 0 0 0-3.7.4 14.3 14.3 0 0 0-3.4 1.4 16.1 16.1 0 0 0-3 2.1 10.1 10.1 0 0 0-2.4 2.7h-.4a.3.3 0 0 1-.1-.2c0-.1-.1-.2-.1-.4s-.1-.2-.1-.3v-.2h-.2l-.6.3-.5.7-.5.8a1.7 1.7 0 0 1-.6.6 2.2 2.2 0 0 1-.3-1 2.8 2.8 0 0 1-.1-1 9.9 9.9 0 0 1 .2-1.7l.6-1.7a8.8 8.8 0 0 0 .5-1.5 9.9 9.9 0 0 0 .3-1.7h-3a1.7 1.7 0 0 1 .4-1.4 3.2 3.2 0 0 1 1-1l1.3-.5 1.3-.2h1.8l1.8.3 1.7.3h3.1a1.5 1.5 0 0 0-1-.9l-1.5-.2-1.6-.2c-.6 0-1 .1-1.3-.1l-2.4-1.3h-.2a6.1 6.1 0 0 0-1.9 0h-1.9a5.8 5.8 0 0 1-1.8-.4l-1.6-.9-1.6-.8a3.2 3.2 0 0 0-1.7-.4v3.7h1l.6-.2.5-.3c.2-.1.2-.3.5-.4h.4v1.7l1.2-.4a.4.4 0 0 1 .1.3.4.4 0 0 1 .1.3 3.1 3.1 0 0 1-.8 2.3 16.6 16.6 0 0 1-1.9 1.8 10.9 10.9 0 0 0-2.8-.8L98 144v-4.7l-1 .3-1.3.6-1.1.7c-.3.3-.6.5-.6.7v4.2a3.9 3.9 0 0 0 1.8-.2l1.1-.3.7-.4h1l.2.4a2.4 2.4 0 0 0 .2.8l.3.8a4.3 4.3 0 0 0 .1.5 2.7 2.7 0 0 1-.3 1.2 3 3 0 0 1-.6 1.1l-.9.8-1.1.3h-.7l-1.8-.2-2.2-.5a5.4 5.4 0 0 1-1.9-.7 1.5 1.5 0 0 1-.9-1.3v-7l.5-.5 1.2-1 1.4-1.3 1.4-1.5a11.6 11.6 0 0 0 1.1-1.6 3.7 3.7 0 0 0 .5-1.6 2.8 2.8 0 0 0-.7-1.7 10.4 10.4 0 0 0-1.7-1.2l-2-.9-1.5-.5-.8-5.5a12.4 12.4 0 0 0-.4-1.8 4.9 4.9 0 0 0-.6-1.7 6.9 6.9 0 0 0-1.1-1.3 2.8 2.8 0 0 0-1.6-.5 7.3 7.3 0 0 0-2.2.3 8.2 8.2 0 0 0-1.9.9l-1 .6-1.6.9-1.7 1.1-1.8 1a10.1 10.1 0 0 1-1.6 1c-.4.3-.8.7-1 .7h-1.6l-1.3-.3a2 2 0 0 1-.8-.4c-.3-.2-.2-.5-.2-.9v-1.1c0-.3-.1-.5 0-.5h1a.1.1 0 0 1 0-.2.9.9 0 0 1 .1-.5.7.7 0 0 1 .1-.5v-.3l-.5-.5-.5-.3c-.2-.1-.3-.3-.4-.4s-.2-.4-.2-.8a2 2 0 0 1 .1-.7l.4-.7c.2-.2.2-.4.4-.5l.5-.2v.5c0 .3.3.6.3.8a.8.8 0 0 0 .8.5.9.9 0 0 0 .6-.3l.6-.7a3 3 0 0 0 .4-1c.1-.2.1.2.1-.8h-7.3c-.2 0-.3-.1-.5-.3l-.7-.4-.5-.5a.7.7 0 0 1-.3-.6 2.9 2.9 0 0 1 .7-1.9 3.8 3.8 0 0 1 1.6-1.1 6 6 0 0 1 1.9-.6l1.7-.5 1.3-.6 2.1-.9 2-1a4.5 4.5 0 0 1 1.3-.6h8.2a4.4 4.4 0 0 1 2.3.6 9 9 0 0 1 1.9 1.5 9.5 9.5 0 0 1 1.5 2l1.4 2a10.3 10.3 0 0 0 1.4 1.5 2.1 2.1 0 0 0 1.5.7.5.5 0 0 0 .5-.3c0-.1.2-.2.5-.2a1.5 1.5 0 0 1 .9.2l.9.4.9.4 1 .2h2.4l2.5-.3 2.5-.3h2.5l4.4.2a24.1 24.1 0 0 1 4.3 1l3.1 1.2 3 1.3 3.2 1a12.6 12.6 0 0 0 3.3.5h1.5l7.8-1.6c2.6-.6 5.2-1 7.7-1.4l7.8-1c2.6-.2 5.3-.3 7.9-.3h5.4a23.4 23.4 0 0 1 3 .5l22 4.4h7c-.5 0-1.1.6-1.9.8a19.4 19.4 0 0 1-2.4-.2z"/></symbol></svg>